<?xml version="1.0" encoding="UTF-8"?> <svg xmlns="http://www.w3.org/2000/svg" xmlns:xlink="http://www.w3.org/1999/xlink" fill="none" height="40" viewBox="0 0 218 40" width="218"><clipPath id="a"><path d="m0 0h218v40h-218z"></path></clipPath><g clip-path="url(#a)" fill="#052865"><path d="m67.0676 17.0087h-4.155c-.0756-.541-.2316-1.0254-.4657-1.4484-.2341-.4229-.534-.7868-.9022-1.0868-.3658-.3-.7901-.5287-1.2655-.6885-.478-.1599-.9949-.2386-1.5508-.2386-1.0047 0-1.8825.2509-2.6286.75-.7461.5017-1.324 1.2271-1.7361 2.1811-.4121.9541-.6169 2.1098-.6169 3.4696s.2072 2.5697.6217 3.5213c.4146.9516.9949 1.6672 1.741 2.1516.7462.4844 1.6094.7278 2.5896.7278.5511 0 1.0607-.0737 1.5313-.2213.4706-.1475.89-.3615 1.2582-.6467.3657-.2828.673-.6295.9168-1.0377s.4121-.8729.5072-1.3967l4.155.0197c-.1073.9-.3755 1.7655-.8022 2.5967-.4268.8336-.9998 1.5762-1.7167 2.2303-.7168.654-1.5727 1.1704-2.5627 1.5491s-2.1092.5705-3.3552.5705c-1.7337 0-3.282-.3959-4.6451-1.1877-1.363-.7918-2.4383-1.9352-3.2259-3.4352-.7876-1.4999-1.1802-3.3147-1.1802-5.4441 0-2.1295.3974-3.954 1.1948-5.454.7973-1.5 1.8775-2.6434 3.2455-3.4303 1.3654-.7868 2.9041-1.18273 4.6109-1.18273 1.1265 0 2.1702.15983 3.1358.47953.9656.3196 1.819.7819 2.5676 1.3917.7461.6099 1.3557 1.3549 1.8263 2.2352.4706.8804.773 1.8885.9071 3.0246z"></path><path d="m75.4579 30.0289c-1.4728 0-2.7481-.3172-3.8185-.9516-1.0729-.6344-1.8995-1.5221-2.4823-2.6606s-.8729-2.4614-.8729-3.9663.2901-2.8475.8729-3.986 1.4094-2.0262 2.4823-2.6606 2.3457-.9516 3.8185-.9516c1.4727 0 2.748.3172 3.8184.9516 1.0729.6344 1.8995 1.5221 2.4823 2.6606s.8729 2.4663.8729 3.986c0 1.5196-.2901 2.8278-.8729 3.9663s-1.4094 2.0262-2.4823 2.6606c-1.0728.6344-2.3457.9516-3.8184.9516zm.0195-3.1573c.6705 0 1.2313-.1918 1.68-.5779.4487-.386.79-.9147 1.0192-1.5835.2317-.6689.3463-1.4312.3463-2.2869s-.1146-1.618-.3463-2.2868c-.2316-.6689-.5705-1.2-1.0192-1.5885s-1.0095-.5828-1.68-.5828c-.6706 0-1.2436.1943-1.702.5828s-.8022.9196-1.0339 1.5885c-.2316.6688-.3462 1.4311-.3462 2.2868s.1146 1.618.3462 2.2869c.2317.6688.5755 1.1975 1.0339 1.5835.4584.3861 1.0265.5779 1.702.5779z"></path><path d="m88.242 10.1481v19.5955h-4.0428v-19.5955z"></path><path d="m96.9837 30.0289c-1.4727 0-2.748-.3172-3.8184-.9516-1.0729-.6344-1.8995-1.5221-2.4823-2.6606s-.8729-2.4614-.8729-3.9663.2901-2.8475.8729-3.986 1.4094-2.0262 2.4823-2.6606c1.0728-.6344 2.3457-.9516 3.8184-.9516 1.4728 0 2.7481.3172 3.8183.9516 1.073.6344 1.9 1.5221 2.482 2.6606.583 1.1385.873 2.4663.873 3.986 0 1.5196-.29 2.8278-.873 3.9663-.582 1.1385-1.409 2.0262-2.482 2.6606-1.0727.6344-2.3455.9516-3.8183.9516zm.0171-3.1573c.6706 0 1.2314-.1918 1.68-.5779.4487-.386.7901-.9147 1.0193-1.5835.2316-.6689.3459-1.4312.3459-2.2869s-.1143-1.618-.3459-2.2868c-.2317-.6689-.5706-1.2-1.0193-1.5885-.4486-.3885-1.0094-.5828-1.68-.5828-.6705 0-1.2436.1943-1.702.5828s-.8022.9196-1.0338 1.5885c-.2317.6688-.3463 1.4311-.3463 2.2868s.1146 1.618.3463 2.2869c.2316.6688.5754 1.1975 1.0338 1.5835.4584.3861 1.0266.5779 1.702.5779z"></path><path d="m105.725 29.7437v-14.6973h3.853v2.5942h.17c.305-.8606.81-1.5393 1.52-2.0385.707-.4967 1.555-.7475 2.543-.7475.987 0 1.85.2508 2.553.75.702.5016 1.17 1.1778 1.404 2.0336h.151c.298-.841.837-1.5172 1.617-2.0238.78-.5065 1.707-.7598 2.775-.7598 1.36 0 2.465.4353 3.316 1.3057.851.8705 1.275 2.1024 1.275 3.6983v9.8851h-4.033v-9.081c0-.8164-.214-1.4287-.646-1.8369-.429-.4081-.968-.6122-1.612-.6122-.734 0-1.307.2336-1.716.7032-.412.4697-.617 1.0869-.617 1.8516v8.9753h-3.919v-9.1671c0-.7204-.204-1.2958-.612-1.7212-.407-.4279-.943-.6418-1.609-.6418-.449 0-.853.1131-1.209.3393-.359.2262-.642.5434-.849.9467-.21.4057-.312.8779-.312 1.4213v8.8228z"></path><path d="m129.097 29.7436v-19.5955h4.043v7.3671h.124c.178-.3959.434-.7992.773-1.2098s.781-.7549 1.329-1.0328c.546-.2778 1.229-.4155 2.046-.4155 1.063 0 2.043.2803 2.941.8385.897.5582 1.616 1.3967 2.153 2.5155.536 1.1188.807 2.5204.807 4.2048s-.261 3.0221-.783 4.1483-1.231 1.977-2.126 2.5549c-.895.5778-1.897.8655-3.004.8655-.785 0-1.451-.1303-1.997-.3909-.546-.2607-.995-.5927-1.344-.991-.348-.3984-.614-.8016-.797-1.2098h-.181v2.3532h-3.984zm3.958-7.3498c0 .8729.119 1.6352.361 2.2868.241.6517.587 1.1558 1.043 1.5172.456.3615 1.01.541 1.661.541s1.214-.1844 1.67-.5508.802-.8779 1.039-1.532c.236-.654.356-1.4089.356-2.2622s-.117-1.5934-.351-2.2401c-.235-.6443-.578-1.1484-1.034-1.5123s-1.015-.5459-1.68-.5459c-.666 0-1.212.1746-1.666.5262-.451.3517-.8.8484-1.038 1.4926-.242.6443-.361 1.4041-.361 2.277z"></path><path d="m151.511 30.0289c-1.473 0-2.748-.3172-3.819-.9516-1.073-.6344-1.899-1.5221-2.482-2.6606s-.873-2.4614-.873-3.9663.29-2.8475.873-3.986 1.409-2.0262 2.482-2.6606 2.346-.9516 3.819-.9516c1.472 0 2.748.3172 3.818.9516 1.073.6344 1.9 1.5221 2.482 2.6606.583 1.1385.873 2.4663.873 3.986 0 1.5196-.29 2.8278-.873 3.9663-.582 1.1385-1.409 2.0262-2.482 2.6606s-2.346.9516-3.818.9516zm.019-3.1573c.671 0 1.231-.1918 1.68-.5779.449-.386.79-.9147 1.019-1.5835.232-.6689.347-1.4312.347-2.2869s-.115-1.618-.347-2.2868c-.231-.6689-.57-1.2-1.019-1.5885s-1.009-.5828-1.68-.5828c-.67 0-1.243.1943-1.702.5828-.458.3885-.802.9196-1.034 1.5885-.231.6688-.346 1.4311-.346 2.2868s.115 1.618.346 2.2869c.232.6688.576 1.1975 1.034 1.5835.459.3861 1.027.5779 1.702.5779z"></path><path d="m160.328 29.7436v-19.5955h4.108v8.0851h8.34v-8.0851h4.098v19.5955h-4.098v-8.0949h-8.34v8.0949z"></path><path d="m188.464 23.4856v-8.4392h4.043v14.6973h-3.88v-2.6705h-.151c-.329.8607-.875 1.5541-1.636 2.0754-.763.5237-1.69.7844-2.785.7844-.973 0-1.831-.2238-2.572-.6688-.739-.4476-1.317-1.082-1.731-1.9033-.415-.8237-.625-1.8073-.632-2.9557v-9.3588h4.043v8.631c.007.868.236 1.5541.692 2.0581.456.5041 1.066.7549 1.832.7549.487 0 .943-.1131 1.365-.3393.424-.2262.768-.5631 1.029-1.0106.263-.4476.39-.9984.385-1.6549z"></path><path d="m194.662 29.7437v-14.6973h3.919v2.5647h.151c.266-.9123.712-1.6032 1.339-2.0704.626-.4697 1.348-.7033 2.162-.7033.203 0 .42.0123.654.0393.234.0246.439.0615.617.1058v3.6171c-.19-.0565-.454-.1082-.788-.1524-.336-.0443-.641-.0664-.919-.0664-.595 0-1.124.1278-1.59.3885-.466.2606-.831.6172-1.1 1.077-.268.4598-.402.9885-.402 1.5885v8.3138h-4.043z"></path><path d="m209.709 29.9822c-1.107 0-2.109-.2877-3.004-.8656-.895-.5778-1.604-1.4286-2.126-2.5549-.522-1.1262-.783-2.5081-.783-4.1482 0-1.6402.269-3.086.807-4.2049.537-1.1188 1.254-1.9573 2.149-2.5155s1.877-.8385 2.945-.8385c.817 0 1.497.1377 2.046.4156.546.2778.99.6221 1.329 1.0327.339.4107.595.814.773 1.2099h.124v-7.3671h4.033v19.5955h-3.984v-2.3532h-.171c-.19.4081-.456.8114-.802 1.2098-.344.3983-.79.7278-1.339.9909-.546.2607-1.211.391-1.997.391zm1.281-3.2434c.651 0 1.204-.1795 1.655-.541.451-.3614.8-.8655 1.044-1.5172.244-.6516.366-1.4139.366-2.2868s-.12-1.6328-.361-2.277c-.242-.6443-.588-1.141-1.044-1.4926s-1.009-.5262-1.66-.5262-1.224.182-1.68.5459-.8.868-1.034 1.5122c-.234.6443-.351 1.3918-.351 2.2402 0 .8483.119 1.6081.356 2.2622.236.6541.582 1.1631 1.033 1.5319.452.3664 1.01.5509 1.676.5509z"></path><path d="m37.4584 10.8244-3.0309 1.5565c.9388 1.8245 1.5508 3.8483 1.758 5.99h-9.5315v-5.9605h-3.4089v15.1989h3.4089v-5.9581h9.5315c-.2194 2.2426-.8826 4.3548-1.9019 6.2458l3.0041 1.6106c1.5167-2.8278 2.3798-6.0663 2.3798-9.5064s-.7973-6.4277-2.2067-9.1768z"></path><path d="m19.8313 36.5697c-9.0757 0-16.43221-7.4187-16.43221-16.5709 0-9.1523 7.35901-16.56854 16.43221-16.56854 4.5402 0 8.6513 1.85652 11.6237 4.85891l2.4042-2.42454c-3.5868-3.62451-8.5465-5.86463-14.0279-5.86463-10.95319 0-19.8313 8.9531-19.8313 19.9988 0 11.0456 8.87811 19.9987 19.8313 19.9987 5.4741 0 10.4289-2.2352 14.0182-5.8523l-2.4043-2.4245c-2.9724 2.995-7.0786 4.8466-11.6139 4.8466z"></path></g></svg> 